<?xml version="1.0" encoding="iso-8859-1"?>
<!-- Generator: Adobe Illustrator 19.0.0, SVG Export Plug-In . SVG Version: 6.00 Build 0)  -->
<svg xmlns="http://www.w3.org/2000/svg" xmlns:xlink="http://www.w3.org/1999/xlink" version="1.1" id="Layer_1" x="0px" y="0px" viewBox="0 0 512 512" style="enable-background:new 0 0 512 512;" xml:space="preserve" width="512" height="512">
<g>
	<g>
		<g>
			<path d="M200.043,180.926c0-4.46-4.3-7.964-7.645-7.964c-0.796,0-1.752,0.16-2.389,0.637l-41.888,27.395     c-2.389,1.593-3.504,4.46-3.504,6.53c0,2.071,1.115,4.778,3.504,6.371l41.888,27.395c0.637,0.478,1.593,0.637,2.389,0.637     c3.345,0,7.645-3.345,7.645-7.805c0-2.07-0.956-3.822-2.389-4.619l-33.447-21.979l33.447-21.979     C199.087,184.589,200.043,182.837,200.043,180.926z"/>
			<path d="M277.133,131.871l-58.612,117.064c-0.318,0.796-0.478,1.593-0.478,2.389c0,2.867,2.548,5.893,6.211,5.893     c2.23,0,4.3-1.115,5.256-3.026l58.453-116.586c0.478-0.796,0.637-1.593,0.637-2.548c0-3.664-3.504-6.052-6.689-6.052     C279.841,129.004,278.089,129.8,277.133,131.871z"/>
			<path d="M306.6,234.123c0,4.46,4.141,7.805,7.645,7.805c0.796,0,1.593-0.16,2.229-0.637l41.889-27.395     c2.548-1.593,3.504-4.3,3.504-6.371c0-2.07-1.115-4.938-3.504-6.53L316.475,173.6c-0.637-0.478-1.433-0.637-2.229-0.637     c-3.504,0-7.645,3.504-7.645,7.964c0,1.911,0.956,3.663,2.23,4.619l33.606,21.979l-33.606,21.979     C307.556,230.3,306.6,232.052,306.6,234.123z"/>
			<path d="M485.185,7.208H26.815C12.029,7.208,0,19.238,0,34.023v339.574c0,14.786,12.029,26.815,26.815,26.815h178.359     c-5.404,17.567-12.967,34.126-22.557,49.38h-15.32c-20.923,0-37.945,17.022-37.945,37.945c0,9.403,7.65,17.054,17.054,17.054     h219.188c9.403,0,17.054-7.65,17.054-17.054c0-20.923-17.022-37.945-37.945-37.945h-15.32     c-9.59-15.255-17.152-31.814-22.557-49.38h178.359c14.786,0,26.815-12.029,26.815-26.815V34.023     C512,19.238,499.971,7.208,485.185,7.208z M26.815,22.208h458.37c6.515,0,11.815,5.3,11.815,11.815v295.672H15V34.023     C15,27.509,20.3,22.208,26.815,22.208z M367.647,487.738c0,1.132-0.921,2.054-2.054,2.054H146.406     c-1.132,0-2.054-0.921-2.054-2.054c0-12.652,10.293-22.945,22.945-22.945h177.405     C357.354,464.793,367.647,475.086,367.647,487.738z M311.9,449.793H200.1c8.796-15.418,15.739-31.96,20.719-49.38h70.361     C296.161,417.833,303.104,434.375,311.9,449.793z M485.185,385.413H26.815c-6.515,0-11.815-5.3-11.815-11.815v-28.902h482v28.902     C497,380.112,491.7,385.413,485.185,385.413z"/>
			<path d="M35.499,314.696h441.002c4.142,0,7.5-3.358,7.5-7.5V190.451c0-4.142-3.358-7.5-7.5-7.5s-7.5,3.358-7.5,7.5v109.245     H42.999V190.451c0-4.142-3.358-7.5-7.5-7.5s-7.5,3.358-7.5,7.5v116.745C27.999,311.338,31.357,314.696,35.499,314.696z"/>
			<path d="M35.499,167.953c4.142,0,7.5-3.358,7.5-7.5v-60.164h426.002v60.164c0,4.142,3.358,7.5,7.5,7.5s7.5-3.358,7.5-7.5V43.708     c0-4.142-3.358-7.5-7.5-7.5H35.499c-4.142,0-7.5,3.358-7.5,7.5v116.745C27.999,164.595,31.357,167.953,35.499,167.953z      M469.001,51.208v34.081H42.999V51.208H469.001z"/>
		</g>
	</g>
	<g>
		<path d="M353.554,75.239c-3.855,0-6.991-3.136-6.991-6.99c0-3.855,3.136-6.991,6.991-6.991c3.855,0,6.991,3.136,6.991,6.991    C360.544,72.103,357.408,75.239,353.554,75.239z"/>
		<path d="M391.861,75.239c-3.855,0-6.991-3.136-6.991-6.99c0-3.855,3.136-6.991,6.991-6.991s6.991,3.136,6.991,6.991    C398.852,72.103,395.716,75.239,391.861,75.239z"/>
		<path d="M430.168,75.239c-3.855,0-6.991-3.136-6.991-6.99c0-3.855,3.136-6.991,6.991-6.991c3.854,0,6.99,3.136,6.99,6.991    C437.159,72.103,434.023,75.239,430.168,75.239z"/>
	</g>
</g>















</svg>
